# xmcd
#
# Track frame offsets:
#	150
#	15366
#	30518
#	44532
#	56111
#	70238
#	84032
#	98008
#	112057
#	124042
#	137675
#	150665
#	166572
#	180964
#	194400
#	209091
#	223826
#	236738
#	249841
#	265125
#
# Disc length: 3717 seconds
#
# Revision: 1
# Processed by: cddbd v1.5.1PL2 Copyright (c) Steve Scherf et al.
# Submitted via: audiograbber 1.83.01
#
DISCID=0c0e8314
DTITLE=MIX - Winterwunderland Neue Lieder zur Adventszeit
DYEAR=1900
DGENRE=
TTITLE0=Frans Bauer - Einer schaute immer durch das Schlüsselloch
TTITLE1=Bianca - Das schönste Lied
TTITLE2=Axel Becker - Die Trompeten von Jericho
TTITLE3=Geraldine Olivier - Engelchen sucht Nikolaus
TTITLE4=Wind  - Hoch am Himmel
TTITLE5=Marianne Cathomen - Tango im Schnee
TTITLE6=Alpentrio Tirol - Kinder kommt´s her
TTITLE7=Rendezvous  - Kinderwunderland
TTITLE8=Eberhard Hertel - Winterwunderland
TTITLE9=Sibylle - Nikolaus, heut´ Abend bin ich dein
TTITLE10=Klostertaler - Das Fest der Liebe
TTITLE11=Lena Valaitis  - Ein schöner Tag
TTITLE12=Nockalm Quintett - Komm ins Winterwunderland
TTITLE13=Astrid Harzbecker  - Weihnachten wirst du daheim sein
TTITLE14=Stefanie Hertel and Stefan Mross - Heut´ fallen Wunder aus den Sternen
TTITLE15=Oswald Sattler - Feiertag in unseren Herzen
TTITLE16=Mühlenhof Musikanten - Bald ist Weihnachten da
TTITLE17=Heintje Simons - Tausned kleine goldene Sterne
TTITLE18=Sorane  - Zauber der Weihnacht
TTITLE19=Oliver Thomas  - Ein Engel so wie du
EXTD=
EXTT0=
EXTT1=
EXTT2=
EXTT3=
EXTT4=
EXTT5=
EXTT6=
EXTT7=
EXTT8=
EXTT9=
EXTT10=
EXTT11=
EXTT12=
EXTT13=
EXTT14=
EXTT15=
EXTT16=
EXTT17=
EXTT18=
EXTT19=
PLAYORDER=
